<mxfile host="app.diagrams.net" modified="2024-04-23T08:46:02.261Z" agent="Mozilla/5.0 (Windows NT 10.0; Win64; x64) AppleWebKit/537.36 (KHTML, like Gecko) Chrome/124.0.0.0 Safari/537.36" etag="4_YG1xJnJGDxRzIO5_Oa" version="24.2.5" type="github">
  <diagram name="페이지-1" id="L76KYFS6m3szZcxJ2I_A">
    <mxGraphModel dx="2868" dy="3882" grid="1" gridSize="10" guides="1" tooltips="1" connect="1" arrows="1" fold="1" page="1" pageScale="1" pageWidth="827" pageHeight="1169" math="0" shadow="0">
      <root>
        <mxCell id="0" />
        <mxCell id="1" parent="0" />
        <mxCell id="LRuk8M_YAY-WA2fXIHYL-37" value="" style="rounded=1;whiteSpace=wrap;html=1;fillColor=#fff2cc;strokeColor=#d6b656;" vertex="1" parent="1">
          <mxGeometry x="1220" y="-1180" width="1100" height="433" as="geometry" />
        </mxCell>
        <mxCell id="LRuk8M_YAY-WA2fXIHYL-33" value="" style="rounded=1;whiteSpace=wrap;html=1;" vertex="1" parent="1">
          <mxGeometry x="1620" y="-1137" width="640" height="340" as="geometry" />
        </mxCell>
        <mxCell id="LRuk8M_YAY-WA2fXIHYL-21" value="" style="rounded=1;whiteSpace=wrap;html=1;" vertex="1" parent="1">
          <mxGeometry x="1240" y="-1137" width="320" height="340" as="geometry" />
        </mxCell>
        <mxCell id="_0Sq9OXk9K78qEpdIgP7-38" value="&lt;span style=&quot;font-size: 20px;&quot;&gt;&lt;font style=&quot;font-size: 20px;&quot;&gt;일배치로 주소록 캠페인관련 onsite json 파일 저장 하는 매치&lt;/font&gt;&amp;nbsp;&lt;/span&gt;" style="text;strokeColor=none;align=center;fillColor=none;html=1;verticalAlign=middle;whiteSpace=wrap;rounded=0;fontStyle=1;fontSize=20;" parent="1" vertex="1">
          <mxGeometry x="70" y="-1169" width="610" height="50" as="geometry" />
        </mxCell>
        <mxCell id="_0Sq9OXk9K78qEpdIgP7-39" value="RDB&amp;nbsp;&lt;br&gt;PROGRAM_MA" style="shape=cylinder3;whiteSpace=wrap;html=1;boundedLbl=1;backgroundOutline=1;size=15;fillColor=#d5e8d4;strokeColor=#82b366;" parent="1" vertex="1">
          <mxGeometry x="158" y="-792" width="240" height="120" as="geometry" />
        </mxCell>
        <mxCell id="_0Sq9OXk9K78qEpdIgP7-40" value="" style="edgeStyle=orthogonalEdgeStyle;rounded=0;orthogonalLoop=1;jettySize=auto;html=1;exitX=0.5;exitY=0;exitDx=0;exitDy=0;exitPerimeter=0;" parent="1" source="_0Sq9OXk9K78qEpdIgP7-39" edge="1">
          <mxGeometry relative="1" as="geometry">
            <mxPoint x="277.47" y="-810" as="sourcePoint" />
            <mxPoint x="277" y="-930" as="targetPoint" />
            <Array as="points">
              <mxPoint x="278" y="-840" />
            </Array>
          </mxGeometry>
        </mxCell>
        <mxCell id="_0Sq9OXk9K78qEpdIgP7-41" value="&lt;div style=&quot;&quot;&gt;findAllSiteSeqByScenarioSeqAndActiveAndTestFlag&lt;br&gt;&lt;/div&gt;" style="text;whiteSpace=wrap;html=1;fontStyle=1;fontSize=13;fontFamily=Verdana;labelBackgroundColor=none;" parent="1" vertex="1">
          <mxGeometry x="109" y="-842" width="320" height="40" as="geometry" />
        </mxCell>
        <mxCell id="_0Sq9OXk9K78qEpdIgP7-42" value="Select" style="whiteSpace=wrap;html=1;sketch=1;hachureGap=4;jiggle=2;curveFitting=1;fontFamily=Architects Daughter;fontSource=https%3A%2F%2Ffonts.googleapis.com%2Fcss%3Ffamily%3DArchitects%2BDaughter;fontSize=20;strokeColor=none;fillColor=none;" parent="1" vertex="1">
          <mxGeometry x="218" y="-870" width="120" height="28" as="geometry" />
        </mxCell>
        <mxCell id="LRuk8M_YAY-WA2fXIHYL-1" value="&lt;b&gt;Makeshop 기준 -&amp;nbsp;&lt;/b&gt;&lt;div&gt;&lt;b&gt;PROGRAM_MA scenarioNo 가 70,&lt;/b&gt;&lt;/div&gt;&lt;div&gt;&lt;b&gt;active = &#39;Y&#39; d&lt;/b&gt;&lt;/div&gt;" style="rounded=1;whiteSpace=wrap;html=1;fontSize=15;glass=0;strokeWidth=2;shadow=0;labelBackgroundColor=none;" vertex="1" parent="1">
          <mxGeometry x="139" y="-1050" width="280" height="120" as="geometry" />
        </mxCell>
        <mxCell id="LRuk8M_YAY-WA2fXIHYL-3" value="&lt;div&gt;&lt;b&gt;SITE_INFO&amp;nbsp;&lt;/b&gt;&lt;/div&gt;&lt;b&gt;Clickhouse User 조회&lt;/b&gt;&lt;div&gt;&lt;b&gt;주소록 유무 확인&lt;/b&gt;&lt;/div&gt;" style="rounded=1;whiteSpace=wrap;html=1;fontSize=15;glass=0;strokeWidth=2;shadow=0;labelBackgroundColor=none;" vertex="1" parent="1">
          <mxGeometry x="470" y="-1050" width="280" height="120" as="geometry" />
        </mxCell>
        <mxCell id="LRuk8M_YAY-WA2fXIHYL-6" value="" style="rounded=0;html=1;jettySize=auto;orthogonalLoop=1;fontSize=11;endArrow=block;endFill=0;endSize=8;strokeWidth=1;shadow=0;labelBackgroundColor=none;edgeStyle=orthogonalEdgeStyle;fontColor=default;exitX=1;exitY=0.5;exitDx=0;exitDy=0;entryX=0;entryY=0.5;entryDx=0;entryDy=0;" edge="1" parent="1">
          <mxGeometry relative="1" as="geometry">
            <mxPoint x="474" y="-990.29" as="targetPoint" />
            <mxPoint x="419" y="-990.29" as="sourcePoint" />
          </mxGeometry>
        </mxCell>
        <mxCell id="LRuk8M_YAY-WA2fXIHYL-10" value="" style="edgeStyle=orthogonalEdgeStyle;rounded=0;orthogonalLoop=1;jettySize=auto;html=1;entryX=0.5;entryY=1;entryDx=0;entryDy=0;" edge="1" parent="1" source="LRuk8M_YAY-WA2fXIHYL-7" target="LRuk8M_YAY-WA2fXIHYL-3">
          <mxGeometry relative="1" as="geometry" />
        </mxCell>
        <mxCell id="LRuk8M_YAY-WA2fXIHYL-7" value="CLICK HOUSE&amp;nbsp;&lt;br&gt;makeshop_user" style="shape=cylinder3;whiteSpace=wrap;html=1;boundedLbl=1;backgroundOutline=1;size=15;strokeWidth=2;labelBackgroundColor=none;fillColor=#b1ddf0;strokeColor=#10739e;" vertex="1" parent="1">
          <mxGeometry x="485.5" y="-792" width="249" height="120" as="geometry" />
        </mxCell>
        <mxCell id="LRuk8M_YAY-WA2fXIHYL-30" value="" style="edgeStyle=orthogonalEdgeStyle;rounded=0;orthogonalLoop=1;jettySize=auto;html=1;" edge="1" parent="1" source="LRuk8M_YAY-WA2fXIHYL-9" target="LRuk8M_YAY-WA2fXIHYL-3">
          <mxGeometry relative="1" as="geometry" />
        </mxCell>
        <mxCell id="LRuk8M_YAY-WA2fXIHYL-9" value="Select" style="whiteSpace=wrap;html=1;sketch=1;hachureGap=4;jiggle=2;curveFitting=1;fontFamily=Architects Daughter;fontSource=https%3A%2F%2Ffonts.googleapis.com%2Fcss%3Ffamily%3DArchitects%2BDaughter;fontSize=20;strokeColor=none;fillColor=none;" vertex="1" parent="1">
          <mxGeometry x="550" y="-870" width="120" height="28" as="geometry" />
        </mxCell>
        <mxCell id="LRuk8M_YAY-WA2fXIHYL-11" value="&lt;b&gt;user수만큼 json파일 생성&amp;nbsp;&lt;/b&gt;&lt;div&gt;&lt;b&gt;-&amp;gt; cust_collect.tar.gz 로 압축&amp;nbsp;&lt;/b&gt;&lt;/div&gt;" style="rounded=1;whiteSpace=wrap;html=1;fontSize=15;glass=0;strokeWidth=2;shadow=0;labelBackgroundColor=none;" vertex="1" parent="1">
          <mxGeometry x="806" y="-1050" width="280" height="120" as="geometry" />
        </mxCell>
        <mxCell id="LRuk8M_YAY-WA2fXIHYL-13" value="" style="rounded=0;html=1;jettySize=auto;orthogonalLoop=1;fontSize=11;endArrow=block;endFill=0;endSize=8;strokeWidth=1;shadow=0;labelBackgroundColor=none;edgeStyle=orthogonalEdgeStyle;fontColor=default;exitX=1;exitY=0.5;exitDx=0;exitDy=0;entryX=0;entryY=0.5;entryDx=0;entryDy=0;" edge="1" parent="1">
          <mxGeometry relative="1" as="geometry">
            <mxPoint x="804" y="-990.34" as="targetPoint" />
            <mxPoint x="749" y="-990.34" as="sourcePoint" />
          </mxGeometry>
        </mxCell>
        <mxCell id="LRuk8M_YAY-WA2fXIHYL-14" value="압축 json 업로드" style="rounded=1;whiteSpace=wrap;html=1;fontSize=15;glass=0;strokeWidth=2;shadow=0;labelBackgroundColor=none;" vertex="1" parent="1">
          <mxGeometry x="1260" y="-1050" width="280" height="120" as="geometry" />
        </mxCell>
        <mxCell id="LRuk8M_YAY-WA2fXIHYL-17" value="71서버 jsch 연결&amp;nbsp;" style="whiteSpace=wrap;html=1;rounded=1;glass=0;strokeWidth=2;shadow=0;labelBackgroundColor=none;fillColor=#e1d5e7;strokeColor=#9673a6;" vertex="1" parent="1">
          <mxGeometry x="1070" y="-1120" width="220" height="50" as="geometry" />
        </mxCell>
        <mxCell id="LRuk8M_YAY-WA2fXIHYL-22" value="" style="endArrow=none;dashed=1;html=1;dashPattern=1 3;strokeWidth=2;rounded=0;" edge="1" parent="1">
          <mxGeometry width="50" height="50" relative="1" as="geometry">
            <mxPoint x="1173" y="-670" as="sourcePoint" />
            <mxPoint x="1173" y="-1080" as="targetPoint" />
          </mxGeometry>
        </mxCell>
        <mxCell id="LRuk8M_YAY-WA2fXIHYL-23" value="업로드한 file cust_collect 디렉토리 밑에&amp;nbsp;&lt;div&gt;압축 풀기&lt;/div&gt;&lt;div&gt;- 덮어쓰기 방식&lt;/div&gt;" style="rounded=1;whiteSpace=wrap;html=1;fontSize=15;glass=0;strokeWidth=2;shadow=0;labelBackgroundColor=none;" vertex="1" parent="1">
          <mxGeometry x="1654" y="-1050" width="280" height="120" as="geometry" />
        </mxCell>
        <mxCell id="LRuk8M_YAY-WA2fXIHYL-24" value="압축파일 삭제" style="rounded=1;whiteSpace=wrap;html=1;fontSize=15;glass=0;strokeWidth=2;shadow=0;labelBackgroundColor=none;" vertex="1" parent="1">
          <mxGeometry x="1950" y="-1050" width="280" height="120" as="geometry" />
        </mxCell>
        <mxCell id="LRuk8M_YAY-WA2fXIHYL-25" value="71서버 jsch 연결&amp;nbsp; 해제" style="whiteSpace=wrap;html=1;rounded=1;glass=0;strokeWidth=2;shadow=0;labelBackgroundColor=none;fillColor=#e1d5e7;strokeColor=#9673a6;" vertex="1" parent="1">
          <mxGeometry x="2220" y="-1137" width="220" height="50" as="geometry" />
        </mxCell>
        <mxCell id="LRuk8M_YAY-WA2fXIHYL-26" value="" style="endArrow=classic;startArrow=classic;html=1;rounded=0;exitX=1;exitY=0.5;exitDx=0;exitDy=0;entryX=0;entryY=0.5;entryDx=0;entryDy=0;" edge="1" parent="1" source="LRuk8M_YAY-WA2fXIHYL-11" target="LRuk8M_YAY-WA2fXIHYL-14">
          <mxGeometry width="50" height="50" relative="1" as="geometry">
            <mxPoint x="1380" y="-780" as="sourcePoint" />
            <mxPoint x="1430" y="-830" as="targetPoint" />
          </mxGeometry>
        </mxCell>
        <mxCell id="LRuk8M_YAY-WA2fXIHYL-27" value="&lt;b&gt;성공 여부 return&amp;nbsp;&lt;/b&gt;" style="text;whiteSpace=wrap;html=1;" vertex="1" parent="1">
          <mxGeometry x="1086" y="-1020" width="146" height="40" as="geometry" />
        </mxCell>
        <mxCell id="LRuk8M_YAY-WA2fXIHYL-29" value="cust_collect.tar.gz" style="shape=document;whiteSpace=wrap;html=1;boundedLbl=1;fillColor=#ffe6cc;strokeColor=#d79b00;" vertex="1" parent="1">
          <mxGeometry x="1310" y="-905" width="180" height="98" as="geometry" />
        </mxCell>
        <mxCell id="LRuk8M_YAY-WA2fXIHYL-31" value="" style="endArrow=classic;html=1;rounded=0;exitX=0.5;exitY=1;exitDx=0;exitDy=0;" edge="1" parent="1" source="LRuk8M_YAY-WA2fXIHYL-14" target="LRuk8M_YAY-WA2fXIHYL-29">
          <mxGeometry width="50" height="50" relative="1" as="geometry">
            <mxPoint x="1600" y="-960" as="sourcePoint" />
            <mxPoint x="1650" y="-1010" as="targetPoint" />
          </mxGeometry>
        </mxCell>
        <mxCell id="LRuk8M_YAY-WA2fXIHYL-32" value="decompress.sh 에서 동작&lt;div&gt;파일위치 : /data/tas_image/onsite/&lt;/div&gt;" style="whiteSpace=wrap;html=1;rounded=1;glass=0;strokeWidth=2;shadow=0;labelBackgroundColor=none;fillColor=#f5f5f5;strokeColor=#666666;fontColor=#333333;" vertex="1" parent="1">
          <mxGeometry x="1680" y="-1120" width="220" height="50" as="geometry" />
        </mxCell>
        <mxCell id="LRuk8M_YAY-WA2fXIHYL-34" value="" style="endArrow=classic;html=1;rounded=0;exitX=1;exitY=0.5;exitDx=0;exitDy=0;entryX=0;entryY=0.5;entryDx=0;entryDy=0;" edge="1" parent="1" source="LRuk8M_YAY-WA2fXIHYL-14" target="LRuk8M_YAY-WA2fXIHYL-23">
          <mxGeometry width="50" height="50" relative="1" as="geometry">
            <mxPoint x="1620" y="-660" as="sourcePoint" />
            <mxPoint x="1670" y="-710" as="targetPoint" />
          </mxGeometry>
        </mxCell>
      </root>
    </mxGraphModel>
  </diagram>
</mxfile>
